<?xml version="1.0" encoding="utf-8"?>
<!-- Generator: Adobe Illustrator 24.1.0, SVG Export Plug-In . SVG Version: 6.00 Build 0)  -->
<svg version="1.1" xmlns="http://www.w3.org/2000/svg" xmlns:xlink="http://www.w3.org/1999/xlink" x="0px" y="0px"
	 viewBox="0 0 258.7 711.8" style="enable-background:new 0 0 258.7 711.8;" xml:space="preserve">
<style type="text/css">
	.st0{fill:none;stroke:#000000;stroke-width:4;stroke-miterlimit:10;}
</style>
<g id="Layer_12">
	<polyline class="st0" points="17.4,170.7 17.4,21.1 238.3,21.1 	"/>
</g>
<g id="Layer_11">
	<line class="st0" x1="20.4" y1="116.3" x2="234.9" y2="116.3"/>
</g>
<g id="Layer_10">
	<polyline class="st0" points="139.9,577.1 17.4,577.1 17.4,688.1 242.4,688.1 242.4,642 79.9,642 	"/>
</g>
<g id="Layer_9">
	<polyline class="st0" points="242.4,199.1 137.4,199.1 137.4,322.1 242.4,322.1 	"/>
</g>
<g id="Layer_8">
	<line class="st0" x1="19.4" y1="258.6" x2="107.4" y2="258.6"/>
</g>
<g id="Layer_7">
	<polyline class="st0" points="59.3,194.1 17.4,194.1 17.4,317.1 105.4,317.1 	"/>
</g>
<g id="Layer_6">
	<polyline class="st0" points="17.4,336.1 17.4,428.1 238.4,428.1 	"/>
</g>
<g id="Layer_5">
	<polyline class="st0" points="40.4,541.8 40.4,454.1 238.4,580.1 238.4,454.1 	"/>
</g>
<g id="Layer_4">
	<line class="st0" x1="138.4" y1="270.6" x2="226.4" y2="270.6"/>
</g>
<g id="Layer_3">
	<g id="Layer_13">
		<line class="st0" x1="17.9" y1="454.1" x2="17.9" y2="545.1"/>
	</g>
</g>
</svg>
