<?xml version="1.0" encoding="utf-8"?>
<!-- Generator: Adobe Illustrator 24.1.2, SVG Export Plug-In . SVG Version: 6.00 Build 0)  -->
<svg version="1.1" id="Layer_1" xmlns="http://www.w3.org/2000/svg" xmlns:xlink="http://www.w3.org/1999/xlink" x="0px" y="0px"
	 viewBox="0 0 612 285.3" style="enable-background:new 0 0 612 285.3;" xml:space="preserve">
<style type="text/css">
	.st0{fill:none;stroke:#010202;stroke-width:3;stroke-miterlimit:10;}
</style>
<line class="st0" x1="418.3" y1="95.5" x2="558.2" y2="95.5"/>
<polyline class="st0" points="584.6,33.8 418.3,33.8 418.3,131.9 584.6,131.9 "/>
<line class="st0" x1="302.3" y1="76.9" x2="394.3" y2="76.9"/>
<polyline class="st0" points="344.6,33.8 300.6,33.8 300.6,131.9 392.9,131.9 "/>
<polyline class="st0" points="31.1,135.5 31.1,33.7 272.6,33.7 "/>
<line class="st0" x1="32.6" y1="100.7" x2="267" y2="100.7"/>
<polyline class="st0" points="32.6,178.8 32.6,243.5 205.5,243.5 "/>
<line class="st0" x1="232.7" y1="178.8" x2="232.7" y2="243.5"/>
<polyline class="st0" points="263,243.5 263,184 418.3,239.6 418.3,184 "/>
<polyline class="st0" points="522,179.1 445.6,179.1 445.6,243.5 585.8,243.5 585.8,216.8 484.6,216.8 "/>
</svg>
